# AST/ASF file generated using VICON BodyLanguage
# -----------------------------------------------
:version 1.10
:name VICON
:units
  mass 1.0
  length 0.45
  angle deg
:documentation
   .ast/.asf automatically generated from VICON data using
   VICON BodyBuilder and BodyLanguage model FoxedUp or BRILLIANT.MOD
:root
   order TX TY TZ RX RY RZ
   axis XYZ
   position 0 0 0  
   orientation 0 0 0 
:bonedata
  begin
     id 1 
     name lhipjoint
     direction 0.521452 -0.77106 0.36545 
     length 2.0933 
     axis 0 0 0  XYZ
  end
  begin
     id 2 
     name lfemur
     direction 0.34202 -0.939693 0  
     length 6.83441  
     axis 0 0 20  XYZ
    dof rx ry rz
    limits (-160.0 20.0)
           (-70.0 70.0)
           (-60.0 70.0)
  end
  begin
     id 3 
     name ltibia
     direction 0.34202 -0.939693 0   
     length 7.28749   
     axis 0 0 20   XYZ
    dof rx
    limits (-10.0 170.0)
  end
  begin
     id 4 
     name lfoot
     direction 0.100608 -0.276418 0.955757   
     length 1.52195   
     axis -90 7.62852e-016 20   XYZ
    dof rx rz
    limits (-45.0 90.0)
           (-70.0 20.0)
  end
  begin
     id 5 
     name ltoes
     direction 1.53558e-011 -4.21907e-011 1   
     length 0.770459   
     axis -90 7.62852e-016 20   XYZ
    dof rx
    limits (-90.0 20.0)
  end
  begin
     id 6 
     name rhipjoint
     direction -0.488071 -0.788702 0.373812   
     length 2.04648  
     axis 0 0 0  XYZ 
  end
  begin
     id 7 
     name rfemur
     direction -0.34202 -0.939693 0   
     length 6.92583   
     axis 0 0 -20   XYZ
    dof rx ry rz
    limits (-160.0 20.0)
           (-70.0 70.0)
           (-70.0 60.0)
  end
  begin
     id 8 
     name rtibia
     direction -0.34202 -0.939693 0   
     length 7.41043   
     axis 0 0 -20   XYZ
    dof rx
    limits (-10.0 170.0)
 end
 begin
     id 9 
     name rfoot
     direction -0.0784433 -0.215521 0.973343   
     length 1.67708  
     axis -90 -7.62852e-016 -20   XYZ
    dof rx rz
    limits (-45.0 90.0)
           (-20.0 70.0)
  end
  begin
     id 10 
     name rtoes
     direction -1.53551e-011 -4.21842e-011 1   
     length 0.849787   
     axis -90 -7.62852e-016 -20   XYZ
    dof rx
    limits (-90.0 20.0)
  end
  begin
     id 11 
     name lowerback
     direction -0.0122332 0.997575 -0.0685192   
     length 1.98724   
     axis 0 0 0   XYZ
    dof rx ry rz
    limits (-20.0 45.0)
           (-30.0 30.0)
           (-30.0 30.0)
  end
  begin
     id 12 
     name upperback
     direction 0.0182347 0.999724 -0.0148421   
     length 1.99029   
     axis 0 0 0   XYZ
    dof rx ry rz
    limits (-20.0 45.0)
           (-30.0 30.0)
           (-30.0 30.0)
  end
  begin
     id 13 
     name thorax
     direction 0.0242908 0.99956 0.0170184   
     length 1.99573   
     axis 0 0 0   XYZ
    dof rx ry rz
    limits (-20.0 45.0)
           (-30.0 30.0)
           (-30.0 30.0)
  end
  begin
     id 14 
     name lowerneck
     direction 0.0654488 0.985533 0.156338   
     length 1.4285   
     axis 0 0 0   XYZ
    dof rx ry rz
    limits (-20.0 45.0)
           (-30.0 30.0)
           (-30.0 30.0)
  end
  begin
     id 15 
     name upperneck
     direction -0.02953 0.998556 -0.0448842   
     length 1.44709   
     axis 0 0 0   XYZ
    dof rx ry rz
    limits (-20.0 45.0)
           (-30.0 30.0)
           (-30.0 30.0)
  end
  begin
     id 16
     name head
     direction -0.0155588 0.999386 -0.0314063  
     length 1.44689  
     axis 0 0 0   XYZ
    dof rx ry rz
    limits (-20.0 45.0)
           (-30.0 30.0)
           (-30.0 30.0)
  end
  begin
     id 17 
     name lclavicle
     direction 0.968229 0.236071 -0.0824755  
     length 3.60593  
     axis 0 0 0   XYZ
    dof ry rz
    limits (-20.0 10.0)
           (0.0 20.0)
  end
  begin
     id 18 
     name lhumerus
     direction 1 -4.48968e-011 7.8138e-029   
     length 5.06035   
     axis 180 -30 -90   XYZ
    dof rx ry rz
    limits (-60.0 90.0)
           (-90.0 90.0)
           (-90.0 90.0)
  end
  begin
     id 19
     name lradius
     direction 1 -4.48967e-011 9.02887e-028   
     length 3.1478   
     axis 180 -30 -90   XYZ
    dof rx
    limits (-10.0 170.0)
  end
  begin
     id 20
     name lwrist
     direction 1 -4.48961e-011 7.20928e-028   
     length 1.5739   
     axis -5.52449e-016 90 90   XYZ
    dof ry
    limits (-180.0 0.0)
 end
  begin
     id 21 
     name lhand
     direction 1 -4.48972e-011 1.44186e-027   
     length 0.606747   
     axis -9.20027e-016 90 90   XYZ
    dof rx rz
    limits (-90.0 90.0)
           (-45.0 45.0)
  end
  begin
     id 22 
     name lfingers
     direction 1 -4.48943e-011 2.88371e-027   
     length 0.489175   
     axis -1.84005e-015 90 90   XYZ
    dof rx
    limits (0.0 90.0)
  end
  begin
     id 23
     name lthumb
     direction 0.707107 -6.34917e-011 0.707107   
     length 0.70236   
     axis -90 45 2.85299e-015   XYZ
    dof rx rz
    limits (-45.0 45.0)
           (-45.0 45.0)
  end
  begin
     id 24 
     name rclavicle
     direction -0.978165 0.207816 0.0022268   
     length 3.35425  
     axis 0 0 0   XYZ 
    dof ry rz
    limits (-10.0 20.0)
           (-20.0 0.0)
  end
  begin
     id 25 
     name rhumerus
     direction -1 -4.48964e-011 -4.02159e-027  
     length 5.12273   
     axis 180 30 90   XYZ
    dof rx ry rz
    limits (-90.0 60.0)
           (-90.0 90.0)
           (-90.0 90.0)
  end
  begin
     id 26 
     name rradius
     direction -1 -4.48966e-011 1.62746e-027   
     length 3.422   
     axis 180 30 90   XYZ
    dof rx
    limits (-10.0 170.0)
  end
  begin
     id 27 
     name rwrist
     direction -1 -4.4896e-011 7.20928e-028   
     length 1.711   
     axis -5.52449e-016 -90 -90   XYZ
    dof ry
    limits (-180.0 0.0)
  end
  begin
     id 28
     name rhand
     direction -1 -4.48979e-011 1.44186e-027   
     length 0.704599   
     axis -9.20027e-016 -90 -90   XYZ
    dof rx rz
    limits (-90.0 90.0)
           (-45.0 45.0)
  end
  begin
     id 29
     name rfingers
     direction -1 -4.48962e-011 2.88371e-027   
     length 0.568066   
     axis -1.84005e-015 -90 -90   XYZ
    dof rx
    limits (0.0 90.0)
  end
  begin
     id 30
     name rthumb
     direction -0.707107 -6.34949e-011 0.707107   
     length 0.815633   
     axis -90 -45 -2.85299e-015   XYZ
    dof rx rz
    limits (-45.0 45.0)
           (-45.0 45.0)
  end
:hierarchy
  begin
    root lhipjoint rhipjoint lowerback
    lhipjoint lfemur
    lfemur ltibia
    ltibia lfoot
    lfoot ltoes
    rhipjoint rfemur
    rfemur rtibia
    rtibia rfoot
    rfoot rtoes
    lowerback upperback
    upperback thorax
    thorax lowerneck lclavicle rclavicle
    lowerneck upperneck
    upperneck head
    lclavicle lhumerus
    lhumerus lradius
    lradius lwrist
    lwrist lhand lthumb
    lhand lfingers
    rclavicle rhumerus
    rhumerus rradius
    rradius rwrist
    rwrist rhand rthumb
    rhand rfingers
  end

#!OML:ASF E:\id_vita\Project 1\Capture day 1\Session 1\Male1.ASF
:FULLY-SPECIFIED
:DEGREES
194
root -5.06309 15.9036 0.537906 -168.277 67.3075 -178.621
lowerback -1.71226 1.11088 -1.0803
upperback 3.51688 1.54848 0.666103
thorax 4.53911 0.73874 1.3809
lowerneck 1.2288 -6.60213 6.93092
upperneck 13.9311 -8.37932 -2.06055
head 3.96402 -3.67714 -2.10016
rclavicle -4.79568e-014 2.04748e-014
rhumerus -20.8949 -3.90519 -87.384
rradius 25.0013
rwrist 5.18284
rhand -21.9412 33.8933
rfingers 7.12502
rthumb 4.46557 3.9604
lclavicle -4.79568e-014 2.04748e-014
lhumerus -49.1686 34.6256 59.4517
lradius 7.91853
lwrist -28.0311
lhand -12.1181 42.9548
lfingers 7.12502
lthumb 13.9432 72.4673
rfemur -5.09164 -1.66336 29.9537
rtibia 20.8194
rfoot -22.2855 -7.80413
rtoes 1.00061
lfemur -39.561 0.050137 -20.136
ltibia 49.4693
lfoot -21.5741 -10.6344
ltoes -2.298
195
root -4.95809 15.9077 0.520358 -168.307 68.2472 -178.938
lowerback -1.86811 1.26625 -1.1934
upperback 3.50062 1.76374 0.570678
thorax 4.60393 0.84195 1.36138
lowerneck 1.26079 -6.37823 6.97059
upperneck 13.6657 -8.10509 -1.89053
head 3.88236 -3.54552 -2.03632
rclavicle 8.13029e-014 1.64991e-014
rhumerus -20.7919 -4.66212 -87.1755
rradius 24.7786
rwrist 5.54142
rhand -21.3728 33.8195
rfingers 7.12502
rthumb 5.01438 3.89881
lclavicle 8.13029e-014 1.64991e-014
lhumerus -49.0391 34.4707 59.4728
lradius 7.92422
lwrist -27.73
lhand -12.0986 42.9227
lfingers 7.12502
lthumb 13.962 72.4339
rfemur -4.55777 -1.67445 29.7117
rtibia 19.949
rfoot -22.0734 -7.26174
rtoes 0.841604
lfemur -40.0698 0.0685821 -20.7012
ltibia 47.4981
lfoot -21.557 -10.8367
ltoes -1.89263
196
root -4.8633 15.9131 0.494915 -167.437 69.4049 -178.469
lowerback -2.03205 1.50189 -0.872657
upperback 3.3985 2.06497 0.490667
thorax 4.59494 1.00306 1.11941
lowerneck 1.1898 -6.21852 6.91015
upperneck 13.3859 -7.92936 -1.7037
head 3.81447 -3.46935 -1.95596
rclavicle 5.12864e-014 -6.55989e-015
rhumerus -20.7915 -5.14891 -87.0276
rradius 24.4288
rwrist 6.23356
rhand -22.2489 34.7506
rfingers 7.12502
rthumb 4.16841 4.81165
lclavicle 5.12864e-014 -6.55989e-015
lhumerus -48.8958 34.3622 59.4737
lradius 7.8911
lwrist -27.4425
lhand -12.0991 43.0427
lfingers 7.12502
lthumb 13.9615 72.554
rfemur -4.17067 -1.68273 29.6524
rtibia 18.9701
rfoot -21.7453 -6.61413
rtoes 0.108022
lfemur -40.7536 0.1256 -20.9279
ltibia 45.4374
lfoot -21.087 -10.8779
ltoes -1.32458
197
root -4.73082 15.9178 0.491695 -167.612 69.7569 -178.274
lowerback -1.75688 1.40063 -1.12206
upperback 3.5501 1.93873 0.622601
thorax 4.5873 0.931033 1.38258
lowerneck 1.1396 -6.10039 6.91726
upperneck 13.1324 -7.7832 -1.7689
head 3.73752 -3.41461 -1.9713
rclavicle 8.64713e-015 -1.19271e-014
rhumerus -20.8538 -5.10945 -86.9859
rradius 24.1091
rwrist 6.38612
rhand -22.1547 34.3881
rfingers 7.12502
rthumb 4.25938 4.45092
lclavicle 8.64713e-015 -1.19271e-014
lhumerus -48.9948 34.3852 59.3177
lradius 7.93885
lwrist -27.1736
lhand -12.1624 43.1481
lfingers 7.12502
lthumb 13.9005 72.6635
rfemur -2.57758 -1.54085 29.8478
rtibia 17.7534
rfoot -21.33 -6.86744
rtoes -0.522911
lfemur -40.4061 0.0324626 -21.0864
ltibia 43.3157
lfoot -20.7159 -11.508
ltoes -1.09774
198
root -4.62574 15.924 0.469344 -166.917 70.6342 -177.952
lowerback -2.07252 1.44091 -1.03669
upperback 3.48973 1.98807 0.617091
thorax 4.70535 0.956029 1.34033
lowerneck 1.33164 -5.98674 6.87815
upperneck 12.7208 -7.62442 -1.78971
head 3.56336 -3.35848 -1.9482
rclavicle -6.45553e-014 -3.57812e-015
rhumerus -20.7442 -4.98722 -87.0052
rradius 23.7246
rwrist 6.47501
rhand -21.9409 34.1077
rfingers 7.12502
rthumb 4.46583 4.1748
lclavicle -6.45553e-014 -3.57812e-015
lhumerus -49.2842 34.3892 59.001
lradius 8.23589
lwrist -26.8983
lhand -12.2919 43.2093
lfingers 7.12502
lthumb 13.7757 72.7332
rfemur -1.92414 -1.41445 29.7685
rtibia 16.43
rfoot -20.996 -5.95951
rtoes -0.352128
lfemur -40.936 0.0102742 -21.2899
ltibia 41.1612
lfoot -20.05 -11.6338
ltoes -2.09692
199
root -4.49568 15.925 0.457599 -167.975 70.8578 -178.834
lowerback -2.11481 1.23562 -1.43683
upperback 3.73069 1.74053 0.592687
thorax 4.97843 0.817161 1.53026
lowerneck 1.51789 -5.84308 6.74691
upperneck 12.2868 -7.43951 -1.65703
head 3.39421 -3.28774 -1.85881
rclavicle -5.29264e-014 -2.62396e-014
rhumerus -20.5027 -5.21298 -86.9862
rradius 23.392
rwrist 6.78069
rhand -21.8162 33.6208
rfingers 7.12502
rthumb 4.5862 3.69047
lclavicle -5.29264e-014 -2.62396e-014
lhumerus -49.3978 34.4438 58.7238
lradius 8.50925
lwrist -26.605
lhand -12.306 43.1559
lfingers 7.12502
lthumb 13.7621 72.6807
rfemur -0.347208 -1.37809 29.54
rtibia 14.8933
rfoot -20.4943 -5.67239
rtoes -0.17978
lfemur -40.6712 -0.272828 -21.8217
ltibia 38.9799
lfoot -20.0164 -12.0637
ltoes -2.05591
200
root -4.39005 15.9332 0.435725 -167.1 72.13 -178.478
lowerback -2.32753 1.50646 -1.20652
upperback 3.46224 2.09143 0.405395
thorax 4.82088 1.0027 1.23041
lowerneck 1.56572 -5.7612 6.8314
upperneck 12.1508 -7.34207 -1.54203
head 3.34406 -3.2375 -1.82835
rclavicle 2.98177e-014 1.09332e-014
rhumerus -20.7561 -6.0048 -86.9157
rradius 23.1035
rwrist 7.2717
rhand -21.9529 33.7265
rfingers 7.12502
rthumb 4.45426 3.7933
lclavicle 2.98177e-014 1.09332e-014
lhumerus -49.5391 34.0609 58.3628
lradius 8.657
lwrist -26.3191
lhand -12.2332 42.9962
lfingers 7.12502
lthumb 13.8323 72.5163
rfemur 0.224729 -1.03295 29.3308
rtibia 13.4244
rfoot -20.0337 -4.60563
rtoes -1.06442
lfemur -41.2823 -0.225194 -21.9045
ltibia 36.8201
lfoot -19.828 -11.1126
ltoes -2.79884
201
root -4.27577 15.9375 0.415762 -166.528 73.0316 -178.227
lowerback -2.50669 1.57678 -1.17119
upperback 3.3353 2.18299 0.34681
thorax 4.79122 1.0494 1.15902
lowerneck 1.47358 -5.53361 7.01273
upperneck 11.9834 -7.04762 -1.66436
head 3.30641 -3.09852 -1.89586
rclavicle -2.75814e-014 -6.55989e-015
rhumerus -20.8277 -6.12745 -86.9334
rradius 22.6841
rwrist 7.41556
rhand -22.2519 34.0615
rfingers 7.12502
rthumb 4.16556 4.12247
lclavicle -2.75814e-014 -6.55989e-015
lhumerus -49.5671 34.0275 58.0523
lradius 8.58433
lwrist -26.2381
lhand -11.9013 42.7146
lfingers 7.12502
lthumb 14.1521 72.2125
rfemur 1.20452 -0.676448 29.2117
rtibia 11.6017
rfoot -19.3524 -3.891
rtoes -1.63041
lfemur -41.6878 -0.401822 -21.9225
ltibia 34.7855
lfoot -19.1862 -10.1606
ltoes -5.80909
202
root -4.15521 15.9408 0.398217 -166.275 73.8202 -178.123
lowerback -2.60776 1.57525 -1.22146
upperback 3.32425 2.18529 0.304188
thorax 4.83706 1.04861 1.14636
lowerneck 1.3963 -5.26871 7.09688
upperneck 11.772 -6.70613 -1.74266
head 3.25842 -2.94094 -1.93008
rclavicle 5.90142e-014 -3.35946e-014
rhumerus -20.7761 -6.11808 -87.0213
rradius 22.2672
rwrist 7.53305
rhand -22.163 33.6681
rfingers 7.12502
rthumb 4.25133 3.7308
lclavicle 5.90142e-014 -3.35946e-014
lhumerus -49.4736 34.128 57.7269
lradius 8.41281
lwrist -26.2574
lhand -11.3345 42.4928
lfingers 7.12502
lthumb 14.6982 71.9518
rfemur 2.47139 -0.25741 29.0795
rtibia 9.63391
rfoot -18.3621 -3.00303
rtoes -0.669601
lfemur -41.9741 -0.679674 -21.8824
ltibia 33.0416
lfoot -18.2371 -9.59711
ltoes -11.0542
203
root -4.03136 15.9498 0.380708 -165.91 74.6346 -177.845
lowerback -2.63248 1.60963 -1.18669
upperback 3.28255 2.23084 0.239794
thorax 4.81016 1.07354 1.06333
lowerneck 1.35185 -5.11374 7.04897
upperneck 11.6525 -6.51592 -1.66918
head 3.23819 -2.85324 -1.89414
rclavicle -3.29734e-014 -6.95746e-016
rhumerus -20.8858 -6.5496 -87.0189
rradius 21.9402
rwrist 7.98231
rhand -22.1624 33.6044
rfingers 7.12502
rthumb 4.25198 3.66714
lclavicle -3.29734e-014 -6.95746e-016
lhumerus -49.5601 34.0326 57.2874
lradius 8.46455
lwrist -26.0812
lhand -11.3659 42.7021
lfingers 7.12502
lthumb 14.668 72.1633
rfemur 4.20068 0.18612 28.9734
rtibia 6.85853
rfoot -17.2973 -2.25093
rtoes -1.37889
lfemur -42.2027 -0.9866 -21.6912
ltibia 31.6731
lfoot -17.3511 -9.2035
ltoes -18.0445
204
root -3.92782 15.9485 0.380248 -164.101 75.2791 -175.953
lowerback -2.13378 1.67726 -0.898189
upperback 3.16214 2.29632 0.35307
thorax 4.40548 1.11814 1.00318
lowerneck 1.31769 -5.01256 6.98225
upperneck 11.5704 -6.39221 -1.62188
head 3.22524 -2.7982 -1.86484
rclavicle 3.18304e-014 -1.83379e-014
rhumerus -21.1078 -7.01563 -86.9118
rradius 21.7639
rwrist 8.23324
rhand -22.4646 33.6529
rfingers 7.12502
rthumb 3.96014 3.70997
lclavicle 3.18304e-014 -1.83379e-014
lhumerus -49.5524 33.8983 57.0343
lradius 8.44204
lwrist -25.828
lhand -11.8336 43.0866
lfingers 7.12502
lthumb 14.2173 72.58
rfemur 7.31754 0.540169 29.45
rtibia 1.33239
rfoot -14.6877 -0.482237
rtoes -0.0933698
lfemur -42.4341 -1.17556 -20.9482
ltibia 30.6986
lfoot -16.2885 -9.64967
ltoes -15.9027
205
root -3.79838 15.9444 0.365384 -163.578 75.759 -175.358
lowerback -2.10277 1.66412 -0.81267
upperback 3.22979 2.27489 0.401446
thorax 4.46006 1.10952 1.00452
lowerneck 1.14473 -4.84788 6.77866
upperneck 11.4565 -6.19946 -1.55107
head 3.23432 -2.71697 -1.80765
rclavicle -1.09332e-014 2.82771e-014
rhumerus -21.1296 -7.36148 -86.7836
rradius 21.4955
rwrist 8.36584
rhand -22.3931 33.4145
rfingers 7.12502
rthumb 4.02916 3.4728
lclavicle -1.09332e-014 2.82771e-014
lhumerus -49.2877 33.9156 57.0098
lradius 8.29182
lwrist -25.5245
lhand -12.0348 43.4024
lfingers 7.12502
lthumb 14.0234 72.9093
rfemur 8.56171 0.65314 29.4896
rtibia -7.31528e-014
rfoot -14.2631 0.0175879
rtoes 0.271437
lfemur -42.4713 -1.54119 -20.6448
ltibia 30.0736
lfoot -15.8821 -10.3308
ltoes -13.2443
206
root -3.66255 15.9389 0.338186 -163.572 76.3821 -175.541
lowerback -2.51667 1.64988 -0.794323
upperback 3.28866 2.26109 0.318085
thorax 4.76127 1.10158 0.923073
lowerneck 1.00143 -4.64159 6.64996
upperneck 11.2721 -5.94871 -1.49963
head 3.21321 -2.60709 -1.76582
rclavicle 3.37934e-015 1.58531e-014
rhumerus -21.1183 -7.54608 -86.7636
rradius 21.1104
rwrist 8.53714
rhand -22.2376 33.7619
rfingers 7.12502
rthumb 4.17936 3.8232
lclavicle 3.37934e-015 1.58531e-014
lhumerus -49.1156 33.8918 56.7945
lradius 8.27499
lwrist -25.1987
lhand -12.0602 43.4565
lfingers 7.12502
lthumb 13.999 72.9652
rfemur 8.92611 0.896227 29.2055
rtibia -5.08889e-014
rfoot -14.5793 0.15864
rtoes -1.1353
lfemur -42.7455 -2.02781 -20.5458
ltibia 29.7704
lfoot -15.7543 -11.0142
ltoes -9.66054
